<svg xmlns="http://www.w3.org/2000/svg" xmlns:xlink="http://www.w3.org/1999/xlink" width="512" zoomAndPan="magnify" viewBox="0 0 384 383.999986" height="512" preserveAspectRatio="xMidYMid meet" version="1.0"><defs><clipPath id="c78dc5422b"><path d="M 84.398438 84.398438 L 299.601562 84.398438 L 299.601562 299.601562 L 84.398438 299.601562 Z M 84.398438 84.398438 " clip-rule="nonzero"/></clipPath><clipPath id="dc5cc13e80"><path d="M 192 84.398438 C 132.574219 84.398438 84.398438 132.574219 84.398438 192 C 84.398438 251.425781 132.574219 299.601562 192 299.601562 C 251.425781 299.601562 299.601562 251.425781 299.601562 192 C 299.601562 132.574219 251.425781 84.398438 192 84.398438 Z M 192 84.398438 " clip-rule="nonzero"/></clipPath><clipPath id="70c1f88295"><path d="M 0.398438 0.398438 L 215.601562 0.398438 L 215.601562 215.601562 L 0.398438 215.601562 Z M 0.398438 0.398438 " clip-rule="nonzero"/></clipPath><clipPath id="881580c0d2"><path d="M 108 0.398438 C 48.574219 0.398438 0.398438 48.574219 0.398438 108 C 0.398438 167.425781 48.574219 215.601562 108 215.601562 C 167.425781 215.601562 215.601562 167.425781 215.601562 108 C 215.601562 48.574219 167.425781 0.398438 108 0.398438 Z M 108 0.398438 " clip-rule="nonzero"/></clipPath><clipPath id="d079e69b84"><rect x="0" width="216" y="0" height="216"/></clipPath><clipPath id="6109db0cd4"><path d="M 116.4375 116.4375 L 267.5625 116.4375 L 267.5625 267.5625 L 116.4375 267.5625 Z M 116.4375 116.4375 " clip-rule="nonzero"/></clipPath><clipPath id="e54233e881"><path d="M 192 116.4375 C 150.265625 116.4375 116.4375 150.265625 116.4375 192 C 116.4375 233.734375 150.265625 267.5625 192 267.5625 C 233.734375 267.5625 267.5625 233.734375 267.5625 192 C 267.5625 150.265625 233.734375 116.4375 192 116.4375 Z M 192 116.4375 " clip-rule="nonzero"/></clipPath><clipPath id="c23b2f47c5"><path d="M 0.4375 0.4375 L 151.5625 0.4375 L 151.5625 151.5625 L 0.4375 151.5625 Z M 0.4375 0.4375 " clip-rule="nonzero"/></clipPath><clipPath id="8303ae4b7e"><path d="M 76 0.4375 C 34.265625 0.4375 0.4375 34.265625 0.4375 76 C 0.4375 117.734375 34.265625 151.5625 76 151.5625 C 117.734375 151.5625 151.5625 117.734375 151.5625 76 C 151.5625 34.265625 117.734375 0.4375 76 0.4375 Z M 76 0.4375 " clip-rule="nonzero"/></clipPath><clipPath id="b32b44c35e"><rect x="0" width="152" y="0" height="152"/></clipPath><clipPath id="c1dc77c608"><path d="M 116.4375 116.4375 L 267.5625 116.4375 L 267.5625 267.5625 L 116.4375 267.5625 Z M 116.4375 116.4375 " clip-rule="nonzero"/></clipPath><clipPath id="55bd03c5da"><path d="M 192 116.4375 C 150.265625 116.4375 116.4375 150.265625 116.4375 192 C 116.4375 233.730469 150.265625 267.5625 192 267.5625 C 233.730469 267.5625 267.5625 233.730469 267.5625 192 C 267.5625 150.265625 233.730469 116.4375 192 116.4375 Z M 192 116.4375 " clip-rule="nonzero"/></clipPath><clipPath id="8c754c827b"><path d="M 149.273438 149.273438 L 234.726562 149.273438 L 234.726562 234.726562 L 149.273438 234.726562 Z M 149.273438 149.273438 " clip-rule="nonzero"/></clipPath><clipPath id="66773f5a81"><path d="M 192 149.273438 C 168.402344 149.273438 149.273438 168.402344 149.273438 192 C 149.273438 215.597656 168.402344 234.726562 192 234.726562 C 215.597656 234.726562 234.726562 215.597656 234.726562 192 C 234.726562 168.402344 215.597656 149.273438 192 149.273438 Z M 192 149.273438 " clip-rule="nonzero"/></clipPath><clipPath id="2ffb169706"><path d="M 0.273438 0.273438 L 85.726562 0.273438 L 85.726562 85.726562 L 0.273438 85.726562 Z M 0.273438 0.273438 " clip-rule="nonzero"/></clipPath><clipPath id="90d248dc50"><path d="M 43 0.273438 C 19.402344 0.273438 0.273438 19.402344 0.273438 43 C 0.273438 66.597656 19.402344 85.726562 43 85.726562 C 66.597656 85.726562 85.726562 66.597656 85.726562 43 C 85.726562 19.402344 66.597656 0.273438 43 0.273438 Z M 43 0.273438 " clip-rule="nonzero"/></clipPath><clipPath id="897b38a7b0"><rect x="0" width="86" y="0" height="86"/></clipPath><clipPath id="d0384b2666"><path d="M 149.273438 149.273438 L 234.714844 149.273438 L 234.714844 234.714844 L 149.273438 234.714844 Z M 149.273438 149.273438 " clip-rule="nonzero"/></clipPath><clipPath id="74a191745e"><path d="M 191.996094 149.273438 C 168.402344 149.273438 149.273438 168.402344 149.273438 191.996094 C 149.273438 215.589844 168.402344 234.714844 191.996094 234.714844 C 215.589844 234.714844 234.714844 215.589844 234.714844 191.996094 C 234.714844 168.402344 215.589844 149.273438 191.996094 149.273438 Z M 191.996094 149.273438 " clip-rule="nonzero"/></clipPath></defs><rect x="-38.4" width="460.8" fill="#ffffff" y="-38.399999" height="460.799983" fill-opacity="1"/><rect x="-38.4" width="460.8" fill="#000000" y="-38.399999" height="460.799983" fill-opacity="1"/><g clip-path="url(#c78dc5422b)"><g clip-path="url(#dc5cc13e80)"><g transform="matrix(1, 0, 0, 1, 84, 84)"><g clip-path="url(#d079e69b84)"><g clip-path="url(#70c1f88295)"><g clip-path="url(#881580c0d2)"><path fill="#000000" d="M 0.398438 0.398438 L 215.601562 0.398438 L 215.601562 215.601562 L 0.398438 215.601562 Z M 0.398438 0.398438 " fill-opacity="1" fill-rule="nonzero"/></g></g></g></g><path stroke-linecap="butt" transform="matrix(0.75, 0, 0, 0.75, 84.397618, 84.397611)" fill="none" stroke-linejoin="miter" d="M 143.469854 0.00110211 C 64.235473 0.00110211 0.00109251 64.235482 0.00109251 143.469863 C 0.00109251 222.704245 64.235473 286.938625 143.469854 286.938625 C 222.704235 286.938625 286.938615 222.704245 286.938615 143.469863 C 286.938615 64.235482 222.704235 0.00110211 143.469854 0.00110211 Z M 143.469854 0.00110211 " stroke="#ffffff" stroke-width="66" stroke-opacity="1" stroke-miterlimit="4"/></g></g><g clip-path="url(#6109db0cd4)"><g clip-path="url(#e54233e881)"><g transform="matrix(1, 0, 0, 1, 116, 116)"><g clip-path="url(#b32b44c35e)"><g clip-path="url(#c23b2f47c5)"><g clip-path="url(#8303ae4b7e)"><path fill="#000000" d="M 0.4375 0.4375 L 151.5625 0.4375 L 151.5625 151.5625 L 0.4375 151.5625 Z M 0.4375 0.4375 " fill-opacity="1" fill-rule="nonzero"/></g></g></g></g></g></g><g clip-path="url(#c1dc77c608)"><g clip-path="url(#55bd03c5da)"><path stroke-linecap="butt" transform="matrix(0.75, 0, 0, 0.75, 116.435756, 116.435748)" fill="none" stroke-linejoin="miter" d="M 100.752334 0.00233549 C 45.106496 0.00233549 0.00232589 45.106506 0.00232589 100.752343 C 0.00232589 156.392973 45.106496 201.502351 100.752334 201.502351 C 156.392963 201.502351 201.502342 156.392973 201.502342 100.752343 C 201.502342 45.106506 156.392963 0.00233549 100.752334 0.00233549 Z M 100.752334 0.00233549 " stroke="#ffffff" stroke-width="66" stroke-opacity="1" stroke-miterlimit="4"/></g></g><g clip-path="url(#8c754c827b)"><g clip-path="url(#66773f5a81)"><g transform="matrix(1, 0, 0, 1, 149, 149)"><g clip-path="url(#897b38a7b0)"><g clip-path="url(#2ffb169706)"><g clip-path="url(#90d248dc50)"><path fill="#000000" d="M 0.273438 0.273438 L 85.726562 0.273438 L 85.726562 85.726562 L 0.273438 85.726562 Z M 0.273438 0.273438 " fill-opacity="1" fill-rule="nonzero"/></g></g></g></g></g></g><g clip-path="url(#d0384b2666)"><g clip-path="url(#74a191745e)"><path stroke-linecap="butt" transform="matrix(0.75, 0, 0, 0.75, 149.274855, 149.274847)" fill="none" stroke-linejoin="miter" d="M 56.961657 -0.00187984 C 25.503321 -0.00187984 -0.00188944 25.503331 -0.00188944 56.961666 C -0.00188944 88.420002 25.503321 113.920004 56.961657 113.920004 C 88.419993 113.920004 113.919995 88.420002 113.919995 56.961666 C 113.919995 25.503331 88.419993 -0.00187984 56.961657 -0.00187984 Z M 56.961657 -0.00187984 " stroke="#ffffff" stroke-width="66" stroke-opacity="1" stroke-miterlimit="4"/></g></g></svg>